<svg 
          width="21.600000381469727" 
          height="24" fill="none" 
          xmlns="http://www.w3.org/2000/svg">
          <path d="M 7.200000286102295 10.800000190734863 L 4.799999713897705 10.800000190734863 L 4.799999713897705 13.200000762939453 L 7.200000286102295 13.200000762939453 L 7.200000286102295 10.800000190734863 Z M 12 10.800000190734863 L 9.600000381469727 10.800000190734863 L 9.600000381469727 13.200000762939453 L 12 13.200000762939453 L 12 10.800000190734863 Z M 16.799999237060547 10.800000190734863 L 14.399999618530273 10.800000190734863 L 14.399999618530273 13.200000762939453 L 16.799999237060547 13.200000762939453 L 16.799999237060547 10.800000190734863 Z M 19.200000762939453 2.40000057220459 L 18 2.40000057220459 L 18 0 L 15.600000381469727 0 L 15.600000381469727 2.40000057220459 L 6.000000476837158 2.40000057220459 L 6.000000476837158 0 L 3.5999999046325684 0 L 3.5999999046325684 2.40000057220459 L 2.4000000953674316 2.40000057220459 C 1.068000316619873 2.40000057220459 0.012000560760498047 3.4800000190734863 0.012000560760498047 4.799999713897705 L 0 21.599998474121094 C 0 22.919998168945312 1.068000316619873 24 2.4000000953674316 24 L 19.200000762939453 24 C 20.51999855041504 24 21.600000381469727 22.919998168945312 21.600000381469727 21.599998474121094 L 21.600000381469727 4.799999713897705 C 21.600000381469727 3.4800000190734863 20.51999855041504 2.40000057220459 19.200000762939453 2.40000057220459 Z M 19.200000762939453 21.599998474121094 L 2.4000000953674316 21.599998474121094 L 2.4000000953674316 8.399999618530273 L 19.200000762939453 8.399999618530273 L 19.200000762939453 21.599998474121094 Z" fill="rgb(214.00000244379044,41.00000135600567,41.00000135600567)"/>
        </svg>