<svg 
          width="16.995784759521484" 
          height="17" fill="none" 
          xmlns="http://www.w3.org/2000/svg">
          <path d="M 16.79640769958496 15.76959228515625 L 12.069513320922852 10.998437881469727 C 12.99453353881836 9.838844299316406 13.552200317382812 8.36943531036377 13.552200317382812 6.771673202514648 C 13.552200317382812 3.03176212310791 10.520439147949219 0 6.776101112365723 0 C 3.0317630767822266 0 0 3.0361881256103516 0 6.77609920501709 C 0 10.516010284423828 3.0317630767822266 13.547773361206055 6.776101112365723 13.547773361206055 C 8.395992279052734 13.547773361206055 9.878679275512695 12.981254577636719 11.047124862670898 12.03410530090332 L 15.743036270141602 16.77427864074707 C 15.884668350219727 16.924758911132812 16.07940673828125 17 16.26972198486328 17 C 16.451187133789062 17 16.632648468017578 16.933610916137695 16.769851684570312 16.800832748413086 C 17.061965942382812 16.52199935913086 17.070817947387695 16.061702728271484 16.79640769958496 15.76959228515625 Z M 6.776101112365723 12.091642379760742 C 5.355378150939941 12.091642379760742 4.018746376037598 11.538400650024414 3.014059066772461 10.533714294433594 C 2.009373188018799 9.529026985168457 1.456131935119629 8.192395210266113 1.456131935119629 6.776098251342773 C 1.456131935119629 5.355374336242676 2.009373188018799 4.018743515014648 3.014059066772461 3.0184831619262695 C 4.018746376037598 2.0137977600097656 5.355378150939941 1.460556983947754 6.776101112365723 1.460556983947754 C 8.19682502746582 1.460556983947754 9.533455848693848 2.0137977600097656 10.538143157958984 3.0184831619262695 C 11.542827606201172 4.023170471191406 12.0960693359375 5.359800338745117 12.0960693359375 6.776098251342773 C 12.0960693359375 8.196821212768555 11.542827606201172 9.533453941345215 10.538143157958984 10.533714294433594 C 9.533455848693848 11.538400650024414 8.19682502746582 12.091642379760742 6.776101112365723 12.091642379760742 Z" fill="rgb(175.00000476837158,175.00000476837158,175.00000476837158)"/>
        </svg>